<?xml version="1.0" standalone="no"?>
<!DOCTYPE svg PUBLIC "-//W3C//DTD SVG 20010904//EN"
 "http://www.w3.org/TR/2001/REC-SVG-20010904/DTD/svg10.dtd">
<svg version="1.0" xmlns="http://www.w3.org/2000/svg"
 width="450.000000pt" height="450.000000pt" viewBox="0 0 450.000000 450.000000"
 preserveAspectRatio="xMidYMid meet">
<metadata>
Created by potrace 1.11, written by Peter Selinger 2001-2013
</metadata>
<g transform="translate(0.000000,450.000000) scale(0.100000,-0.100000)"
fill="#000000" stroke="none">
<path d="M40 2255 l0 -2205 2205 0 2205 0 0 2205 0 2205 -2205 0 -2205 0 0
-2205z m4210 73 l0 -1933 -940 940 -940 940 0 992 0 993 940 0 940 0 0 -1932z
m-2640 1517 c-223 -223 -405 -405 -405 -405 0 0 -182 182 -405 405 l-405 405
810 0 810 0 -405 -405z m-957 -143 l407 -407 -410 -410 -410 -410 0 818 c0
449 1 817 3 817 1 0 185 -183 410 -408z m1507 -409 l0 -808 -405 405 -405 405
402 402 c222 222 404 403 405 403 2 0 3 -363 3 -807z m-540 -558 l405 -405
-820 0 -820 0 405 405 c223 223 409 405 415 405 6 0 192 -182 415 -405z m540
-1545 l0 -940 -960 0 -960 0 0 940 0 940 960 0 960 0 0 -940z m1080 -75 l865
-865 -868 0 -867 0 0 865 c0 476 1 865 3 865 1 0 391 -389 867 -865z"/>
</g>
</svg>
